<?xml version="1.0" encoding="iso-8859-1"?>

<!DOCTYPE svg PUBLIC "-//W3C//DTD SVG 1.1//EN" "http://www.w3.org/Graphics/SVG/1.1/DTD/svg11.dtd">
<!-- Uploaded to: SVG Repo, www.svgrepo.com, Generator: SVG Repo Mixer Tools -->
<svg fill="#fff" version="1.1" xmlns="http://www.w3.org/2000/svg" xmlns:xlink="http://www.w3.org/1999/xlink"  width="800px"
	 height="800px" viewBox="0 0 25 32" xml:space="preserve">
<g id="file-liked">
	<path d="M17.954,8h4.742c0.386,0,0.733-0.157,0.882-0.515c0.147-0.356,0.065-0.729-0.207-1.003l-4.744-4.715
		c-0.273-0.271-0.684-0.353-1.039-0.204C17.231,1.711,17,2.059,17,2.444v4.751C17,7.723,17.428,8,17.954,8z"/>
	<path d="M24.046,10h-7.124C15.86,10,15,9.29,15,8.229V1.104C15,0.577,14.572,0,14.046,0H2.965C1.328,0,0,1.478,0,3.114v26.071
		C0,30.823,1.328,32,2.965,32h19.07C23.672,32,25,30.823,25,29.186V11.104C25,10.577,24.572,10,24.046,10z M12.5,25.684
		c0,0-5.814-2.582-5.814-7.293c0-1.672,1.355-3.027,3.029-3.027c1.25,0,2.322,0.758,2.785,1.839
		c0.462-1.081,1.534-1.839,2.785-1.839c1.673,0,3.029,1.355,3.029,3.027C18.314,23.102,12.5,25.684,12.5,25.684z"/>
</g>
<g id="Layer_1">
</g>
</svg>